<?xml version="1.0" encoding="UTF-8"?><svg xmlns="http://www.w3.org/2000/svg" viewBox="0 0 898.51 532.68"><defs><style>.i{fill:#c3c1c4;}</style></defs><g id="a"/><g id="b"/><g id="c"/><g id="d"><g><g><path class="i" d="M260.59,232.63c0,17.21-3.44,33.42-10.3,48.63-6.87,15.21-16.22,28.43-28.04,39.64-11.82,11.37-25.64,20.36-41.46,26.96-15.82,6.61-32.75,9.91-50.8,9.91-11.98,0-23.48-1.53-34.51-4.61-11.02-2.92-21.33-7.14-30.91-12.68-9.75-5.38-18.53-11.91-26.36-19.59-7.99-7.53-14.78-15.98-20.37-25.35-5.59-9.22-9.91-19.13-12.94-29.73C1.71,255.22,.11,244.15,.11,232.63V16.91C.11,11.23,1.87,7,5.38,4.23,8.74,1.47,12.49,.09,16.65,.09s7.99,1.38,11.5,4.15c3.51,2.77,5.27,6.99,5.27,12.68V149.2c11.82-12.91,26.12-23.05,42.89-30.42,16.61-7.38,34.51-11.06,53.68-11.06,11.98,0,23.56,1.46,34.75,4.38,11.18,3.08,21.65,7.3,31.39,12.68,9.58,5.38,18.37,11.83,26.36,19.36,7.83,7.68,14.62,16.13,20.37,25.35,5.59,9.37,9.98,19.36,13.18,29.96l4.55,33.19Zm-33.31,0c0-12.91-2.56-25.04-7.67-36.41-5.12-11.21-12.06-21.05-20.85-29.5-8.95-8.45-19.25-15.13-30.91-20.05-11.82-4.92-24.44-7.38-37.86-7.38s-25.72,2.46-37.38,7.38c-11.82,4.92-22.05,11.6-30.67,20.05-8.79,8.45-15.74,18.29-20.85,29.5-5.11,11.37-7.67,23.51-7.67,36.41s2.55,25.05,7.67,36.41c5.11,11.37,12.06,21.28,20.85,29.73,8.63,8.45,18.85,15.14,30.67,20.05,11.66,4.92,24.12,7.38,37.38,7.38s26.04-2.46,37.86-7.38c11.66-4.92,21.96-11.6,30.91-20.05,8.78-8.45,15.73-18.36,20.85-29.73l7.67-36.41Z"/><path class="i" d="M343.26,49.18c0,3.23-.64,6.3-1.92,9.22-1.44,3.08-3.28,5.69-5.51,7.84-2.4,2.3-5.11,4.07-8.15,5.3-3.2,1.38-6.55,2.07-10.06,2.07s-6.79-.69-9.83-2.07c-3.2-1.23-5.91-3-8.15-5.3-2.24-2.15-4-4.76-5.27-7.84-1.44-2.92-2.16-5.99-2.16-9.22s.72-6.6,2.16-9.68c1.28-3.07,3.03-5.76,5.27-8.07,2.24-2.3,4.95-4.15,8.15-5.53,3.03-1.23,6.31-1.84,9.83-1.84s6.87,.62,10.06,1.84c3.03,1.38,5.75,3.23,8.15,5.53,2.24,2.3,4.07,4.99,5.51,8.07l1.92,9.68Zm-9.11,292.46c0,5.99-1.74,10.3-5.23,12.91-3.49,2.77-7.3,4.15-11.42,4.15s-7.93-1.38-11.42-4.15c-3.49-2.61-5.23-6.91-5.23-12.91V123.16c0-5.68,1.75-9.99,5.23-12.91,3.49-2.77,7.29-4.15,11.42-4.15s7.93,1.38,11.42,4.15c3.49,2.92,5.23,7.22,5.23,12.91v218.48Z"/><path class="i" d="M636.09,235.16c0,2-.48,3.92-1.44,5.76-.96,2-2.24,3.69-3.83,5.07-1.6,1.54-3.35,2.77-5.27,3.69-2.08,.92-4.16,1.38-6.23,1.38h-209.92c2.4,11.06,6.63,21.28,12.7,30.65,5.91,9.53,13.26,17.67,22.05,24.43,8.63,6.91,18.29,12.29,29,16.13,10.7,3.84,21.96,5.76,33.79,5.76,7.03,0,13.82-.69,20.37-2.07,6.55-1.23,12.86-3.07,18.93-5.53,12.46-5.07,23.48-12.45,33.07-22.12,1.92-2.15,3.99-3.69,6.23-4.61,2.07-.77,4.23-1.15,6.47-1.15,4.47,0,8.39,1.54,11.74,4.61,3.19,3.08,4.79,6.76,4.79,11.06,0,3.84-1.76,7.92-5.27,12.21-6.07,6.15-12.86,11.68-20.37,16.59-7.51,4.92-15.42,9.14-23.72,12.68-7.99,3.38-16.29,5.84-24.92,7.38-8.79,1.69-17.89,2.54-27.32,2.54-12.14,0-23.81-1.54-34.99-4.61-11.18-3.07-21.65-7.38-31.39-12.91-9.91-5.38-18.85-11.98-26.84-19.82-8.15-7.68-15.1-16.28-20.85-25.81-5.75-9.37-10.22-19.44-13.42-30.19-3.2-10.75-4.79-21.97-4.79-33.65,0-17.52,3.43-34.03,10.3-49.55,6.71-15.36,15.97-28.81,27.8-40.33,11.66-11.52,25.48-20.66,41.46-27.43,15.97-6.76,33.07-10.14,51.28-10.14s35.38,3.31,51.04,9.91c15.65,6.76,29.39,15.9,41.22,27.43,12.14,11.98,21.57,25.51,28.28,40.56,6.71,15.21,10.06,31.11,10.06,47.71v4.38Zm-34.27-16.13c-1.6-10.6-4.71-20.51-9.35-29.73-4.63-9.06-10.7-17.29-18.21-24.66-8.95-8.45-19.25-15.13-30.91-20.05-11.66-4.76-24.29-7.14-37.86-7.14-12.3,0-23.96,2.07-34.99,6.22-11.02,4.15-20.77,9.83-29.23,17.05-8.63,7.22-15.74,15.83-21.33,25.81-5.75,9.99-9.43,20.82-11.02,32.5h192.9Z"/><path class="i" d="M894.65,341.64c0,5.99-1.75,10.3-5.23,12.91-3.49,2.77-7.3,4.15-11.42,4.15s-7.93-1.38-11.42-4.15c-3.49-2.61-5.23-6.91-5.23-12.91v-124.91c0-10.6-2.08-20.66-6.23-30.19-4.16-9.37-9.83-17.59-17.01-24.66-7.35-6.91-15.82-12.45-25.4-16.59-9.75-3.99-20.13-5.99-31.15-5.99s-21.41,2-31.15,5.99c-9.91,4.15-18.45,9.68-25.64,16.59-7.35,7.07-13.1,15.29-17.25,24.66-4.31,9.53-6.47,19.59-6.47,30.19v124.91c0,5.99-1.76,10.3-5.27,12.91-3.52,2.77-7.35,4.15-11.5,4.15s-7.91-1.38-11.26-4.15c-3.52-2.61-5.27-6.91-5.27-12.91v-124.91c0-14.9,3.03-29.04,9.11-42.41,5.91-13.21,14.06-24.74,24.44-34.57,10.38-9.83,22.44-17.67,36.18-23.51,13.74-5.68,28.43-8.53,44.09-8.53s30.19,2.84,44.09,8.53c13.74,5.84,25.72,13.68,35.94,23.51,10.15,9.83,18.24,21.36,24.27,34.57,5.87,13.37,8.8,27.5,8.8,42.41v124.91Z"/></g><g><path class="i" d="M68.51,484.99c0,1.09-.5,2.2-1.5,3.34-1.66,1.83-3.49,3.47-5.5,4.91-2.01,1.44-4.19,2.66-6.54,3.66-2.22,1-4.56,1.75-7,2.22-2.44,.48-4.95,.72-7.52,.72-3.32,0-6.5-.44-9.55-1.31-3.05-.87-5.91-2.09-8.57-3.66-2.71-1.53-5.15-3.4-7.33-5.63-2.22-2.18-4.12-4.62-5.69-7.33-1.57-2.66-2.79-5.52-3.66-8.57-.87-3.05-1.31-6.24-1.31-9.55,0-4.97,.96-9.66,2.88-14.07,1.88-4.41,4.45-8.24,7.72-11.52s7.11-5.87,11.52-7.79c4.36-1.88,9.03-2.81,14-2.81,2.57,0,5.08,.26,7.52,.79,2.44,.52,4.78,1.29,7,2.29,2.36,1,4.54,2.22,6.54,3.66,2.01,1.44,3.84,3.08,5.5,4.91,1,1.05,1.5,2.18,1.5,3.4s-.46,2.33-1.37,3.21c-.92,.87-1.99,1.31-3.21,1.31-.52,0-1.09-.13-1.7-.39-.65-.26-1.24-.7-1.77-1.31-1.27-1.35-2.66-2.59-4.19-3.73-1.53-1.09-3.18-2.01-4.97-2.75-1.66-.74-3.38-1.31-5.17-1.7-1.83-.35-3.73-.52-5.69-.52-3.71,0-7.2,.7-10.47,2.09-3.27,1.44-6.13,3.38-8.57,5.82s-4.43,5.37-5.82,8.64c-1.44,3.27-2.16,6.76-2.16,10.47s.72,7.26,2.16,10.53c1.4,3.27,3.34,6.13,5.82,8.57,2.44,2.49,5.3,4.43,8.57,5.82,3.27,1.44,6.76,2.16,10.47,2.16s7.46-.76,10.86-2.29c1.79-.74,3.45-1.66,4.97-2.75,1.53-1.09,2.92-2.31,4.19-3.66,.52-.61,1.11-1.07,1.77-1.37,.61-.26,1.18-.39,1.7-.39,1.22,0,2.29,.44,3.21,1.31l1.37,3.27Z"/><path class="i" d="M145.11,463.79c0,4.97-.94,9.64-2.81,14-1.92,4.36-4.51,8.18-7.79,11.45-3.32,3.27-7.15,5.85-11.52,7.72-4.41,1.92-9.09,2.88-14.07,2.88-3.32,0-6.5-.44-9.55-1.31-3.05-.87-5.91-2.09-8.57-3.66-2.71-1.53-5.15-3.4-7.33-5.63-2.22-2.18-4.12-4.62-5.69-7.33-1.57-2.66-2.79-5.52-3.66-8.57-.87-3.05-1.31-6.24-1.31-9.55,0-4.97,.96-9.66,2.88-14.07,1.88-4.41,4.45-8.24,7.72-11.52s7.11-5.87,11.52-7.79c4.36-1.88,9.03-2.81,14-2.81s9.66,.94,14.07,2.81c4.36,1.92,8.2,4.51,11.52,7.79,3.27,3.27,5.87,7.11,7.79,11.52l2.81,14.07Zm-9.09,0c0-3.71-.7-7.2-2.09-10.47-1.44-3.27-3.38-6.15-5.82-8.64-2.49-2.44-5.37-4.38-8.64-5.82-3.32-1.4-6.83-2.09-10.53-2.09s-7.2,.7-10.47,2.09c-3.27,1.44-6.13,3.38-8.57,5.82s-4.43,5.37-5.82,8.64c-1.44,3.27-2.16,6.76-2.16,10.47s.72,7.26,2.16,10.53c1.4,3.27,3.34,6.13,5.82,8.57,2.44,2.49,5.3,4.43,8.57,5.82,3.27,1.44,6.76,2.16,10.47,2.16s7.22-.72,10.53-2.16c3.27-1.4,6.15-3.34,8.64-5.82s4.38-5.3,5.82-8.57l2.09-10.53Z"/><path class="i" d="M220.9,494.74c0,1.7-.48,2.92-1.43,3.66-.95,.79-1.99,1.18-3.12,1.18s-2.17-.39-3.12-1.18c-.95-.74-1.43-1.96-1.43-3.66v-35.46c0-3.01-.57-5.87-1.7-8.57-1.13-2.66-2.68-4.99-4.65-7-2.01-1.96-4.32-3.53-6.94-4.71-2.66-1.13-5.5-1.7-8.51-1.7s-5.85,.57-8.51,1.7c-2.71,1.18-5.04,2.75-7,4.71s-3.58,4.34-4.71,7c-1.18,2.71-1.77,5.56-1.77,8.57v35.46c0,1.7-.48,2.92-1.44,3.66-.96,.79-2.01,1.18-3.14,1.18s-2.16-.39-3.08-1.18c-.96-.74-1.44-1.96-1.44-3.66v-35.46c0-4.23,.83-8.24,2.49-12.04,1.61-3.75,3.84-7.02,6.67-9.81,2.83-2.79,6.13-5.02,9.88-6.67,3.75-1.61,7.76-2.42,12.04-2.42s8.24,.81,12.04,2.42c3.75,1.66,7.02,3.88,9.81,6.67,2.77,2.79,4.98,6.06,6.63,9.81,1.6,3.79,2.4,7.81,2.4,12.04v35.46Z"/><path class="i" d="M283.59,435.39c0,1.13-.48,2.18-1.45,3.14-.97,.96-2.45,1.44-4.44,1.44h-27.47v31.34c0,2.97,.7,5.76,2.1,8.38,1.35,2.62,3.23,4.91,5.66,6.87,2.48,1.96,5.33,3.53,8.56,4.71s6.73,1.77,10.5,1.77c1.99,0,3.47,.46,4.44,1.37,.97,.96,1.46,1.96,1.46,3.01,0,1.13-.49,2.18-1.46,3.14-.97,.96-2.45,1.44-4.44,1.44-5.33,0-10.29-.81-14.87-2.42-4.58-1.61-8.56-3.79-11.96-6.54-3.5-2.83-6.25-6.11-8.24-9.81-1.99-3.71-2.99-7.68-2.99-11.91v-66.08c0-1.61,.59-2.81,1.78-3.6,1.13-.79,2.4-1.18,3.8-1.18s2.69,.39,3.88,1.18,1.78,1.99,1.78,3.6v25.78h27.47c1.99,0,3.47,.44,4.44,1.31l1.45,3.08Z"/><path class="i" d="M375.05,464.51c0,.57-.13,1.11-.39,1.64-.26,.57-.61,1.05-1.05,1.44-.44,.44-.92,.79-1.44,1.05-.57,.26-1.13,.39-1.7,.39h-57.32c.65,3.14,1.81,6.04,3.47,8.7,1.61,2.71,3.62,5.02,6.02,6.94,2.36,1.96,4.99,3.49,7.92,4.58,2.92,1.09,6,1.64,9.23,1.64,1.92,0,3.77-.2,5.56-.59,1.79-.35,3.51-.87,5.17-1.57,3.4-1.44,6.41-3.53,9.03-6.28,.52-.61,1.09-1.05,1.7-1.31,.57-.22,1.16-.33,1.77-.33,1.22,0,2.29,.44,3.21,1.31,.87,.87,1.31,1.92,1.31,3.14,0,1.09-.48,2.25-1.44,3.47-1.66,1.75-3.51,3.32-5.56,4.71-2.05,1.4-4.21,2.6-6.48,3.6-2.18,.96-4.45,1.66-6.8,2.09-2.4,.48-4.89,.72-7.46,.72-3.32,0-6.5-.44-9.55-1.31-3.05-.87-5.91-2.09-8.57-3.66-2.71-1.53-5.15-3.4-7.33-5.63-2.22-2.18-4.12-4.62-5.69-7.33-1.57-2.66-2.79-5.52-3.66-8.57-.87-3.05-1.31-6.24-1.31-9.55,0-4.97,.94-9.66,2.81-14.07,1.83-4.36,4.36-8.18,7.59-11.45,3.18-3.27,6.96-5.87,11.32-7.79,4.36-1.92,9.03-2.88,14-2.88s9.66,.94,13.94,2.81c4.27,1.92,8.03,4.51,11.25,7.79,3.31,3.4,5.89,7.24,7.72,11.52,1.83,4.32,2.75,8.83,2.75,13.54v1.24Zm-9.36-4.58c-.44-3.01-1.29-5.82-2.55-8.44-1.27-2.57-2.92-4.91-4.97-7-2.44-2.4-5.26-4.3-8.44-5.69-3.18-1.35-6.63-2.03-10.34-2.03-3.36,0-6.54,.59-9.55,1.77s-5.67,2.79-7.98,4.84c-2.36,2.05-4.3,4.49-5.82,7.33-1.57,2.84-2.57,5.91-3.01,9.23h52.67Z"/><path class="i" d="M470.83,494.74c0,1.7-.42,2.92-1.27,3.66-.84,.79-1.76,1.18-2.76,1.18s-1.92-.39-2.76-1.18c-.84-.74-1.27-1.96-1.27-3.66v-40.3c0-2.36-.39-4.58-1.16-6.67-.81-2.05-1.91-3.86-3.3-5.43-1.39-1.53-2.99-2.75-4.81-3.66-1.85-.92-3.82-1.37-5.91-1.37s-3.98,.46-5.79,1.37-3.4,2.14-4.75,3.66c-1.39,1.57-2.49,3.38-3.3,5.43-.81,2.09-1.22,4.32-1.22,6.67v40.3c0,1.7-.41,2.92-1.22,3.66-.85,.79-1.78,1.18-2.78,1.18s-1.93-.39-2.78-1.18c-.85-.74-1.28-1.96-1.28-3.66v-40.3c0-2.36-.39-4.58-1.16-6.67-.81-2.05-1.89-3.86-3.24-5.43-1.39-1.53-2.99-2.75-4.81-3.66s-3.77-1.37-5.85-1.37-4.04,.46-5.85,1.37-3.4,2.14-4.75,3.66c-1.39,1.57-2.47,3.38-3.24,5.43-.81,2.09-1.22,4.32-1.22,6.67v40.3c0,1.7-.43,2.92-1.27,3.66-.85,.79-1.78,1.18-2.78,1.18s-1.91-.39-2.72-1.18c-.85-.74-1.28-1.96-1.28-3.66v-40.3c0-3.62,.62-7.02,1.85-10.21,1.2-3.14,2.86-5.89,4.98-8.24,2.09-2.36,4.54-4.23,7.36-5.63,2.78-1.35,5.75-2.03,8.92-2.03,3.86,0,7.47,1,10.83,3.01,3.36,2.01,6.12,4.8,8.28,8.38,1.04-1.79,2.28-3.38,3.7-4.78,1.39-1.4,2.91-2.59,4.57-3.6,1.62-.96,3.36-1.7,5.21-2.22,1.81-.52,3.66-.79,5.55-.79,3.2,0,6.23,.68,9.08,2.03,2.82,1.4,5.28,3.27,7.41,5.63,2.08,2.36,3.74,5.1,4.98,8.24,1.2,3.18,1.79,6.59,1.79,10.21v40.3Z"/><path class="i" d="M555.02,463.79c0,4.89-.94,9.49-2.81,13.81-1.88,4.32-4.43,8.07-7.66,11.25-3.23,3.23-7,5.78-11.32,7.66-4.32,1.88-8.94,2.81-13.87,2.81-5.23,0-10.12-1.07-14.66-3.21-4.58-2.09-8.48-4.95-11.71-8.57v37.62c0,1.61-.48,2.83-1.44,3.66-.96,.79-2.01,1.18-3.14,1.18s-2.16-.39-3.08-1.18c-.96-.83-1.44-2.05-1.44-3.66v-61.37c0-4.88,.94-9.49,2.81-13.81,1.83-4.32,4.36-8.09,7.59-11.32s6.94-5.71,11.25-7.59c4.32-1.83,8.92-2.75,13.81-2.75,3.27,0,6.43,.42,9.49,1.24,3.05,.87,5.91,2.07,8.57,3.6,2.62,1.53,5.02,3.36,7.2,5.5,2.14,2.18,3.99,4.58,5.56,7.2,1.53,2.66,2.73,5.5,3.6,8.51l1.24,9.42Zm-9.09,0c0-3.66-.7-7.11-2.09-10.34-1.4-3.18-3.29-5.98-5.69-8.38-2.44-2.4-5.26-4.3-8.44-5.69-3.23-1.4-6.67-2.09-10.34-2.09s-7.02,.7-10.21,2.09c-3.23,1.4-6.02,3.29-8.38,5.69-2.4,2.4-4.3,5.19-5.69,8.38-1.4,3.23-2.09,6.67-2.09,10.34s.7,7.11,2.09,10.34c1.4,3.23,3.29,6.04,5.69,8.44,2.36,2.4,5.15,4.3,8.38,5.69,3.18,1.4,6.59,2.09,10.21,2.09s7.11-.7,10.34-2.09c3.18-1.4,6-3.29,8.44-5.69,2.4-2.4,4.3-5.21,5.69-8.44l2.09-10.34Z"/><path class="i" d="M635.08,461.87c0,4.97-.94,9.64-2.81,14-1.92,4.36-4.51,8.18-7.79,11.45-3.32,3.27-7.15,5.85-11.52,7.72-4.41,1.92-9.09,2.88-14.07,2.88-3.32,0-6.5-.44-9.55-1.31-3.05-.87-5.91-2.09-8.57-3.66-2.71-1.53-5.15-3.4-7.33-5.63-2.22-2.18-4.12-4.62-5.69-7.33-1.57-2.66-2.79-5.52-3.66-8.57-.87-3.05-1.31-6.24-1.31-9.55,0-4.97,.96-9.66,2.88-14.07,1.88-4.41,4.45-8.24,7.72-11.52s7.11-5.87,11.52-7.79c4.36-1.88,9.03-2.81,14-2.81s9.66,.94,14.07,2.81c4.36,1.92,8.2,4.51,11.52,7.79,3.27,3.27,5.87,7.11,7.79,11.52l2.81,14.07Zm-9.09,0c0-3.71-.7-7.2-2.09-10.47-1.44-3.27-3.38-6.15-5.82-8.64-2.49-2.44-5.37-4.38-8.64-5.82-3.32-1.4-6.83-2.09-10.53-2.09s-7.2,.7-10.47,2.09c-3.27,1.44-6.13,3.38-8.57,5.82s-4.43,5.37-5.82,8.64c-1.44,3.27-2.16,6.76-2.16,10.47s.72,7.26,2.16,10.53c1.4,3.27,3.34,6.13,5.82,8.57,2.44,2.49,5.3,4.43,8.57,5.82,3.27,1.44,6.76,2.16,10.47,2.16s7.22-.72,10.53-2.16c3.27-1.4,6.15-3.34,8.64-5.82s4.38-5.3,5.82-8.57l2.09-10.53Z"/><path class="i" d="M683.01,431.33c0,1.13-.39,2.18-1.18,3.14-.79,.96-1.99,1.44-3.6,1.44-3.01,0-5.85,.59-8.51,1.77-2.66,1.18-5.02,2.77-7.07,4.78-2.01,1.96-3.58,4.25-4.71,6.87-1.13,2.66-1.7,5.52-1.7,8.57v35.46c0,1.7-.48,2.92-1.44,3.66-.96,.79-2.01,1.18-3.14,1.18s-2.16-.39-3.08-1.18c-.96-.74-1.44-1.96-1.44-3.66v-35.46c0-4.32,.81-8.33,2.42-12.04,1.61-3.71,3.84-6.98,6.67-9.81s6.13-5.06,9.88-6.67c3.75-1.61,7.79-2.42,12.1-2.42,1.61,0,2.81,.44,3.6,1.31l1.18,3.08Z"/><path class="i" d="M761.85,494.48c0,1.61-.48,2.81-1.44,3.6-.96,.83-2.01,1.24-3.14,1.24s-2.16-.41-3.08-1.24c-.96-.79-1.44-1.98-1.44-3.6v-6.94c-3.32,3.62-7.24,6.48-11.78,8.57-4.54,2.14-9.47,3.21-14.79,3.21-3.27,0-6.41-.44-9.42-1.31-3.01-.83-5.82-2.03-8.44-3.6-2.66-1.53-5.06-3.38-7.2-5.56-2.18-2.14-4.04-4.54-5.56-7.2-1.53-2.62-2.71-5.43-3.53-8.44-.87-3.01-1.31-6.15-1.31-9.42,0-4.88,.94-9.49,2.81-13.81,1.83-4.32,4.36-8.09,7.59-11.32s6.94-5.71,11.25-7.59c4.32-1.83,8.92-2.75,13.81-2.75,3.27,0,6.43,.42,9.49,1.24,3.05,.87,5.91,2.07,8.57,3.6,2.62,1.53,5.02,3.36,7.2,5.5,2.14,2.18,3.99,4.58,5.56,7.2,1.53,2.66,2.73,5.5,3.6,8.51,.83,3.01,1.24,6.15,1.24,9.42v30.69Zm-9.09-30.69c0-3.66-.7-7.11-2.09-10.34-1.4-3.18-3.29-5.98-5.69-8.38-2.44-2.4-5.26-4.3-8.44-5.69-3.23-1.4-6.67-2.09-10.34-2.09s-7.02,.7-10.21,2.09c-3.23,1.4-6.02,3.29-8.38,5.69-2.4,2.4-4.3,5.19-5.69,8.38-1.4,3.23-2.09,6.67-2.09,10.34s.7,7.11,2.09,10.34c1.4,3.23,3.29,6.04,5.69,8.44,2.36,2.4,5.15,4.3,8.38,5.69,3.18,1.4,6.59,2.09,10.21,2.09s7.11-.7,10.34-2.09c3.18-1.4,6-3.29,8.44-5.69,2.4-2.4,4.3-5.21,5.69-8.44l2.09-10.34Z"/><path class="i" d="M814.17,432.71c0,1.13-.39,2.18-1.18,3.14-.79,.96-1.99,1.44-3.6,1.44-3.01,0-5.85,.59-8.51,1.77-2.66,1.18-5.02,2.77-7.07,4.78-2.01,1.96-3.58,4.25-4.71,6.87-1.13,2.66-1.7,5.52-1.7,8.57v35.46c0,1.7-.48,2.92-1.44,3.66-.96,.79-2.01,1.18-3.14,1.18s-2.16-.39-3.08-1.18c-.96-.74-1.44-1.96-1.44-3.66v-35.46c0-4.32,.81-8.33,2.42-12.04,1.61-3.71,3.84-6.98,6.67-9.81s6.13-5.06,9.88-6.67c3.75-1.61,7.79-2.42,12.1-2.42,1.61,0,2.81,.44,3.6,1.31l1.18,3.08Z"/><path class="i" d="M898.5,496.37c0,3.32-.46,6.52-1.37,9.62-.92,3.05-2.2,5.93-3.85,8.64-1.65,2.66-3.64,5.1-5.97,7.33-2.33,2.22-4.9,4.14-7.69,5.76-2.84,1.57-5.88,2.79-9.13,3.66-3.25,.87-6.62,1.31-10.09,1.31-5.04,0-9.78-.89-14.21-2.68-2.24-.87-4.4-1.94-6.46-3.21-2.11-1.27-4.03-2.66-5.77-4.19-1.1-1.18-1.65-2.38-1.65-3.6s.46-2.25,1.37-3.08c.92-.87,2.04-1.31,3.37-1.31,.59,0,1.19,.11,1.79,.33,.59,.22,1.17,.59,1.72,1.11,2.7,2.44,5.75,4.32,9.13,5.63,1.65,.61,3.37,1.09,5.15,1.44,1.79,.3,3.64,.46,5.56,.46,3.94,0,7.65-.72,11.12-2.16,3.48-1.44,6.52-3.4,9.13-5.89,2.56-2.49,4.6-5.37,6.11-8.64,1.46-3.32,2.2-6.83,2.2-10.53v-3.47c-2.98,2.84-6.43,5.06-10.37,6.67-3.94,1.61-8.13,2.42-12.57,2.42s-8.7-.83-12.64-2.49c-3.94-1.61-7.39-3.82-10.37-6.61-2.98-2.79-5.31-6.06-7-9.81-1.74-3.75-2.61-7.76-2.61-12.04v-35.66c0-1.61,.5-2.83,1.51-3.66,1.01-.79,2.11-1.18,3.3-1.18s2.29,.39,3.3,1.18c.96,.83,1.44,2.05,1.44,3.66v35.66c0,2.97,.62,5.78,1.85,8.44,1.19,2.66,2.84,5,4.94,7,2.11,2.01,4.55,3.6,7.35,4.78,2.79,1.18,5.77,1.77,8.93,1.77s6.13-.59,8.93-1.77c2.79-1.13,5.22-2.7,7.28-4.71,2.06-2.01,3.71-4.34,4.94-7,1.19-2.66,1.79-5.5,1.79-8.51v-35.66c0-1.61,.5-2.83,1.51-3.66,1.01-.79,2.11-1.18,3.3-1.18s2.29,.39,3.3,1.18c.96,.83,1.44,2.05,1.44,3.66v60.98Z"/></g></g></g><g id="e"/><g id="f"/><g id="g"/><g id="h"/></svg>